<svg version="1.1" xmlns="http://www.w3.org/2000/svg" xmlns:xlink="http://www.w3.org/1999/xlink" x="0px" y="0px"
	 viewBox="0 0 83 55" style="enable-background:new 0 0 83 55;" xml:space="preserve">
<style type="text/css">
	.st0-cloud{fill:#00A293;}
</style>
<g>
	<path class="st0-cloud" d="M69.2,55H18C8.1,55,0,46.9,0,37c0-7.9,5.2-14.8,12.6-17.1c0-0.5-0.1-0.9-0.1-1.4C12.5,8.3,20.8,0,31,0
		c6.8,0,13,3.7,16.2,9.6c2.6-1.3,5.4-1.9,8.3-1.9c10.4,0,18.8,8.4,18.8,18.8c0,0.7,0,1.3-0.1,2c5.3,2,8.9,7,8.9,12.8
		C83,48.8,76.8,55,69.2,55z M31,4c-8,0-14.5,6.5-14.5,14.5c0,0.8,0.1,1.6,0.2,2.5l0.3,1.9l-1.9,0.4C8.7,24.7,4,30.4,4,37
		c0,7.7,6.3,14,14,14h51.3c5.4,0,9.8-4.4,9.8-9.8c0-4.6-3.1-8.5-7.5-9.5l-1.9-0.4l0.4-1.9c0.2-1,0.3-2,0.3-3
		c0-8.1-6.6-14.8-14.8-14.8c-2.9,0-5.7,0.8-8.1,2.4l-2,1.3l-0.9-2.3C42.2,7.6,36.9,4,31,4z"/>
</g>
</svg>
